# xmcd
#
# Track frame offsets:
#	150
#	16885
#	27197
#	39595
#	67280
#	81890
#	92707
#	103187
#	114397
#	130035
#	151882
#	165677
#	176227
#	192662
#	208827
#	227227
#	239962
#	252887
#	267572
#	279890
#	293460
#	305982
#	322447
#	341802
#
# Disc length: 4710 seconds
#
# Revision: 0
# Processed by: cddbd v1.5.1PL0 Copyright (c) Steve Scherf et al.
# Submitted via: audiograbber 1.83.01
#
DISCID=76126418
DTITLE=David Allan Coe - Just Divorced/Darlin', Darlin' Plus
DYEAR=2005
DGENRE=Country
TTITLE0=Mona Lisa's Lost Her Smile
TTITLE1=Sweet Angeline
TTITLE2=He's Taking It Hard (She's Taking It Easy)
TTITLE3=For Lovers Only, Part III
TTITLE4=Thief In My Bedroom
TTITLE5=Just Divorced
TTITLE6=It's Great To Be Single Again
TTITLE7=Blue Grass Morning
TTITLE8=I Wanta Know I'm Goin' Home
TTITLE9=For Your Precious Love
TTITLE10=She Used To Love Me A Lot
TTITLE11=You're The Only Song I Sing Today
TTITLE12=Too Close To Home
TTITLE13=My Elusive Dreams
TTITLE14=Mary Go Round (About The Birth Of Jesus)
TTITLE15=Don't Cry Darlin'
TTITLE16=She Ain't You
TTITLE17=My Girl
TTITLE18=Call Me The Breeze
TTITLE19=For Lovers Only (Part IV)
TTITLE20=Cocaine Carolina
TTITLE21=Again, Again And Again
TTITLE22=Why You Been Gone So Long
TTITLE23=Drinking To Forget
EXTD=
EXTT0=
EXTT1=
EXTT2=
EXTT3=
EXTT4=
EXTT5=
EXTT6=
EXTT7=
EXTT8=
EXTT9=
EXTT10=
EXTT11=
EXTT12=
EXTT13=
EXTT14=
EXTT15=
EXTT16=
EXTT17=
EXTT18=
EXTT19=
EXTT20=
EXTT21=
EXTT22=
EXTT23=
PLAYORDER=
